<svg width="7" height="10" viewBox="0 0 7 10" fill="none" xmlns="http://www.w3.org/2000/svg">
<path d="M6.79167 4.83333L1.25 0.0416667C1.20833 0 1.16667 0 1.125 0C1.04167 0 1 0.0416667 0.958333 0.0833333L0.0416667 1.16667C0 1.20833 0 1.25 0 1.29167C0 1.33333 0.0416667 1.41667 0.0833333 1.41667L4.25 5L0.0833333 8.54167C0.0416667 8.58333 0 8.625 0 8.70833C0 8.75 0 8.83333 0.0416667 8.875L0.958333 9.95833C1 9.95833 1.04167 10 1.125 10C1.16667 10 1.20833 10 1.25 9.95833L6.79167 5.16667C6.83333 5.125 6.875 5.08333 6.875 5C6.875 4.95833 6.83333 4.875 6.79167 4.83333Z" fill="#3C3B55"/>
</svg>
