<svg width="85" height="21" viewBox="0 0 85 21" fill="none" xmlns="http://www.w3.org/2000/svg">
<path d="M85 10.325C85 10.2375 85 10.2375 84.9124 10.15C84.9124 10.15 84.9124 10.15 84.9124 10.0625C84.9124 10.0625 84.9124 9.97496 84.8247 9.97496C84.8247 9.97496 84.8247 9.97496 84.7371 9.88746L84.6495 9.79996L74.134 0.174958C73.7835 -0.175042 73.2577 -0.0875417 72.9072 0.262458C72.5567 0.612458 72.6443 1.13746 72.9949 1.48746L81.8454 9.62496H0.876289C0.350515 9.62496 0 9.97496 0 10.5C0 11.025 0.350515 11.375 0.876289 11.375H81.8454L72.9949 19.5125C72.6443 19.8625 72.6443 20.3875 72.9072 20.7375C73.0825 20.9125 73.3454 21 73.5206 21C73.6959 21 73.9588 20.9125 74.134 20.7375L84.6495 11.1125L84.7371 11.025C84.7371 11.025 84.7371 11.025 84.7371 10.9375C84.7371 10.9375 84.7371 10.85 84.8247 10.85C84.8247 10.85 84.8247 10.85 84.8247 10.7625C84.8247 10.675 84.8247 10.675 84.9124 10.5875C84.9124 10.5 84.9124 10.5 84.9124 10.4125C85 10.4125 85 10.4125 85 10.325Z" fill="#B7B6C4"/>
</svg>
