<svg width="10" height="8" viewBox="0 0 10 8" fill="none" xmlns="http://www.w3.org/2000/svg">
<g clip-path="url(#clip0)">
<path d="M9.91667 1.04545L8.83333 0.0454545C8.79167 0 8.75 0 8.70833 0C8.66667 0 8.58333 0.0454545 8.58333 0.0909091L5 4.63636L1.45833 0.0909091C1.41667 0.0454545 1.375 0 1.29167 0C1.25 0 1.20833 0 1.16667 0.0454545L0.0833333 1.04545C0.0416667 1.09091 0 1.13636 0 1.22727C0 1.27273 0 1.31818 0.0416667 1.36364L4.83333 7.40909C4.875 7.45455 4.91667 7.5 5 7.5C5.04167 7.5 5.125 7.45455 5.16667 7.40909L9.95833 1.36364C10 1.31818 10 1.27273 10 1.22727C10 1.13636 9.95833 1.09091 9.91667 1.04545Z" fill="#262262"/>
</g>
<defs>
<clipPath id="clip0">
<rect width="10" height="7.5" fill="white"/>
</clipPath>
</defs>
</svg>
