<svg width="24" height="23" viewBox="0 0 24 23" fill="none" xmlns="http://www.w3.org/2000/svg">
<g clip-path="url(#clip0)">
<path d="M23.9 10.7019L13.8 0.701872C12.8 -0.298128 11.1 -0.198128 10.1 0.801872C9 1.80187 9 3.50187 10 4.50187L14.3 8.60187H2C0.7 8.60187 0 9.90187 0 11.1019C0 11.7019 0.2 12.3019 0.5 12.8019C0.9 13.3019 1.4 13.7019 2 13.7019H14.3L10.1 17.9019C9.6 18.4019 9.4 19.0019 9.4 19.6019C9.4 20.3019 9.7 21.0019 10.2 21.5019C10.7 22.0019 11.4 22.3019 12.1 22.3019C12.8 22.3019 13.4 22.0019 13.8 21.6019L23.8 11.5019C24 11.3019 24 10.9019 23.9 10.7019Z" fill="#3C3B55"/>
</g>
<defs>
<clipPath id="clip0">
<rect width="24" height="22.2" fill="white"/>
</clipPath>
</defs>
</svg>
