<?xml version="1.0" encoding="utf-8"?>
<!-- Generator: Adobe Illustrator 22.0.1, SVG Export Plug-In . SVG Version: 6.00 Build 0)  -->
<svg version="1.1" id="Layer_21" xmlns="http://www.w3.org/2000/svg" xmlns:xlink="http://www.w3.org/1999/xlink" x="0px" y="0px"
	 viewBox="0 0 36.4 64" style="enable-background:new 0 0 36.4 64;" xml:space="preserve" width="22" height="22">
<title></title>
<g>
	<path d="M18,32.6c9,0,16.3-7.3,16.3-16.3S27,0,18,0S1.6,7.3,1.6,16.3S8.9,32.6,18,32.6z M18,9.8c3.6,0,6.5,2.9,6.5,6.5
		s-2.9,6.5-6.5,6.5s-6.5-2.9-6.5-6.5C11.4,12.7,14.4,9.8,18,9.8z" fill="#262262"/>
	<path d="M23.9,45.9c3.6-0.7,7.1-2.1,10.3-4c2.1-1.3,2.8-4.1,1.5-6.3c-1.3-2.1-4.1-2.8-6.3-1.5c0,0,0,0,0,0
		c-6.9,4.2-15.5,4.3-22.5,0.2c-2.2-1.3-5-0.6-6.3,1.6c-1.3,2.2-0.6,4.9,1.6,6.2c3,1.8,6.3,3,9.8,3.7L1.7,56.2
		c-1.8,1.8-1.8,4.7,0,6.5c1.8,1.8,4.7,1.8,6.5,0c0,0,0,0,0,0l9.8-9.8l9.8,9.8c1.8,1.8,4.7,1.8,6.5,0c1.8-1.8,1.8-4.7,0-6.5
		c0,0,0,0,0,0L23.9,45.9z" fill="#262262"/>
</g>
</svg>
