<?xml version="1.0" encoding="utf-8"?>
<!-- Generator: Adobe Illustrator 22.0.1, SVG Export Plug-In . SVG Version: 6.00 Build 0)  -->
<svg version="1.1" id="Слой_1" xmlns="http://www.w3.org/2000/svg" xmlns:xlink="http://www.w3.org/1999/xlink" x="0px" y="0px"
	 viewBox="0 0 20 18.6" style="enable-background:new 0 0 20 18.6;" xml:space="preserve" width="20" height="19">
<style type="text/css">
	.st0{fill:#ffffff;}
</style>
<path id="cloud_x5F_message" class="st0" d="M16.4,4.2C16.4,4.2,16.4,4.2,16.4,4.2C16.4,4.2,16.4,4.2,16.4,4.2C15.3,1.7,12.9,0,10,0
	C6.4,0,3.5,2.7,3.1,6.1c0,0,0,0,0,0s0,0,0,0c-1.9,0.5-3.3,2.3-3,4.4c0.2,1.7,1.7,3.1,3.5,3.4C3.8,14,4,14.2,4,14.4v2.2
	c0,1.8,2.2,2.7,3.4,1.4l3.7-3.7c0.2-0.2,0.4-0.3,0.7-0.3h2.9c2.6,0,5-1.9,5.2-4.6C20.2,7,18.7,4.9,16.4,4.2z M17.8,10
	c-0.4,1.2-1.6,2-2.9,2h0h-3.3c-0.5,0-1,0.2-1.4,0.6l-3.4,3.2C6.5,16.1,6,15.9,6,15.4V13c0-0.6-0.4-1-1-1c-0.9,0-1.5,0.1-2.2-0.4
	c-0.4-0.3-0.6-0.7-0.7-1.1C1.9,9.9,2,9.5,2.2,9.1c0.6-1.1,2-1.5,3-0.7C4.2,5.1,6.8,2,10,2c2.5,0,4.5,1.8,4.9,4c0,0,0,0,0,0
	c0,0,0,0,0.1,0C16.9,6,18.5,7.9,17.8,10z M11,9.7c0,0.6-0.4,1-1,1s-1-0.4-1-1s0.4-1,1-1S11,9.2,11,9.7z M15,9.7c0,0.6-0.4,1-1,1
	s-1-0.4-1-1s0.4-1,1-1S15,9.2,15,9.7z M7,9.7c0,0.6-0.4,1-1,1s-1-0.4-1-1s0.4-1,1-1S7,9.2,7,9.7z"/>
<defs>
<clipPath id="clip0">
<rect width="20" height="18.6" fill="white"/>
</clipPath>
</defs>
</svg>
