<svg width="20" height="20" viewBox="0 0 20 20" fill="none" xmlns="http://www.w3.org/2000/svg">
<g clip-path="url(#clip0)">
<path d="M14.8008 17.7996C14.8008 17.6996 14.8008 17.6996 14.8008 17.7996V17.7996ZM14.7008 18.1996C14.6008 18.2996 14.6008 18.2996 14.7008 18.1996V18.1996ZM14.1008 15.5996C13.4008 15.1996 12.7008 14.7996 12.0008 14.4996C10.6008 13.8996 10.7008 15.5996 9.70078 16.1996C8.30078 16.9996 3.60078 12.4996 3.90078 11.0996C4.00078 9.89961 5.30078 9.89961 4.90078 8.59961C4.70078 7.79961 4.40078 7.09961 4.10078 6.49961C3.70078 5.49961 3.60078 4.99961 2.60078 4.99961C1.80078 4.99961 1.30078 5.39961 0.900781 5.99961C-0.299219 7.59961 -0.0992187 9.79961 0.700781 11.4996C3.00078 16.4996 7.80078 19.6996 11.2008 19.9996C12.5008 20.0996 14.3008 19.3996 14.8008 17.9996C14.8008 18.0996 14.7008 18.1996 14.7008 18.1996C14.7008 18.1996 14.7008 18.0996 14.8008 17.9996C14.8008 17.8996 14.9008 17.7996 14.9008 17.7996C14.9008 17.7996 14.9008 17.8996 14.8008 17.9996C15.1008 16.7996 15.2008 16.1996 14.1008 15.5996ZM18.8008 6.19961H16.4008C16.0008 6.19961 15.7008 5.69961 16.1008 5.39961L19.7008 1.79961C20.1008 1.39961 20.1008 0.799609 19.7008 0.399609C19.3008 -0.000390619 18.7008 -0.000390619 18.3008 0.399609L14.7008 3.99961C14.4008 4.29961 13.8008 4.09961 13.8008 3.59961V1.19961C13.8008 0.599609 13.3008 0.199609 12.8008 0.199609C12.2008 0.199609 11.8008 0.699609 11.8008 1.19961V6.19961C11.8008 7.29961 12.7008 8.19961 13.8008 8.19961C14.6008 8.19961 13.8008 8.19961 18.8008 8.19961C19.4008 8.19961 19.8008 7.79961 19.8008 7.19961C19.8008 6.59961 19.4008 6.19961 18.8008 6.19961Z" fill="#3C3B55"/>
</g>
<defs>
<clipPath id="clip0">
<rect width="20" height="20" fill="white"/>
</clipPath>
</defs>
</svg>
