<svg width="126" height="126" viewBox="0 0 126 126" fill="none" xmlns="http://www.w3.org/2000/svg">
<path opacity="0.5" d="M86.94 67.41C95.13 60.48 100.8 49.77 100.8 37.8C100.8 17.01 83.79 0 63 0C42.21 0 25.2 17.01 25.2 37.8C25.2 49.77 30.87 60.48 39.06 67.41C16.38 75.6 0 97.02 0 126H12.6C12.6 94.5 35.28 75.6 63 75.6C90.72 75.6 113.4 94.5 113.4 126H126C126 97.02 109.62 75.6 86.94 67.41ZM63 63C49.14 63 37.8 51.66 37.8 37.8C37.8 23.94 49.14 12.6 63 12.6C76.86 12.6 88.2 23.94 88.2 37.8C88.2 51.66 76.86 63 63 63Z" fill="#DDDCE8"/>
</svg>
