<svg width="20" height="12" viewBox="0 0 20 12" fill="none" xmlns="http://www.w3.org/2000/svg">
<g clip-path="url(#clip0)">
<path d="M10 0C5.7 0 2 2.3 0 5.8C2 9.3 5.7 11.6 10 11.6C14.3 11.6 18 9.3 20 5.8C18 2.3 14.3 0 10 0ZM10 9.6C7 9.6 4.2 8.2 2.4 5.8C4.2 3.4 7 2 10 2C13 2 15.8 3.4 17.6 5.8C15.8 8.1 13 9.6 10 9.6ZM12 5.8C12 6.9 11.1 7.8 10 7.8C8.9 7.8 8 6.9 8 5.8C8 4.7 8.9 3.8 10 3.8C11.1 3.8 12 4.7 12 5.8Z" fill="#B7B6C4"/>
</g>
<defs>
<clipPath id="clip0">
<rect width="20" height="11.6" fill="white"/>
</clipPath>
</defs>
</svg>
