<svg width="20" height="20" viewBox="0 0 20 20" fill="none" xmlns="http://www.w3.org/2000/svg">
<path d="M18 6V0H2V6H0V18H3V20H17V18H20V6H18ZM4 2H16V6H4V2ZM15 18H5C5 16.6 5 15.4 5 14H15C15 15.4 15 16.6 15 18ZM18 8C18 10.8 18 13.1 18 16H17V12H3V16H2C2 13.2 2 10.9 2 8C5 8 14.5 8 18 8ZM5.2 9.8C5.2 10.4 4.8 10.8 4.2 10.8C3.6 10.8 3.2 10.4 3.2 9.8C3.2 9.2 3.6 8.8 4.2 8.8C4.7 8.8 5.2 9.3 5.2 9.8ZM9.2 9.8C9.2 10.4 8.8 10.8 8.2 10.8C7.6 10.8 7.2 10.4 7.2 9.8C7.2 9.2 7.6 8.8 8.2 8.8C8.7 8.8 9.2 9.3 9.2 9.8Z" fill="#262262"/>
</svg>
