<svg width="31" height="22" viewBox="0 0 31 22" fill="none" xmlns="http://www.w3.org/2000/svg">
<path d="M18.4393 13.42C17.9993 13.86 17.7794 14.63 17.8894 15.29L18.5493 19.58C18.7693 20.9 17.7794 22 16.6795 22C16.3495 22 16.0195 21.89 15.7996 21.78L12.0599 19.8C11.7299 19.69 11.4 19.58 11.18 19.58C10.85 19.58 10.5201 19.69 10.3001 19.8L6.56042 21.78C6.12047 21.89 5.7905 22 5.46053 22C4.25064 22 3.26074 20.9 3.48071 19.58L4.14065 15.29C4.25064 14.63 4.03066 13.97 3.5907 13.42L0.620984 10.34C-0.588902 9.13 0.0710355 7.04 1.72088 6.82L5.90049 6.16C6.56042 6.05 7.11037 5.61 7.44034 5.06L9.31017 1.1C9.64013 0.44 10.4101 0 11.07 0C11.7299 0 12.4999 0.44 12.8298 1.21L14.6997 5.17C15.0296 5.83 15.5796 6.16 16.2395 6.27L20.4191 6.93C22.069 7.15 22.7289 9.24 21.519 10.45L18.4393 13.42Z" fill="#92C83E"/>
</svg>
