<?xml version="1.0" encoding="utf-8"?>
<!-- Generator: Adobe Illustrator 22.0.1, SVG Export Plug-In . SVG Version: 6.00 Build 0)  -->
<svg version="1.1" id="Слой_1" xmlns="http://www.w3.org/2000/svg" xmlns:xlink="http://www.w3.org/1999/xlink" x="0px" y="0px"
	 viewBox="0 0 20 20" style="enable-background:new 0 0 20 20;" xml:space="preserve" width="15" height="15" fill="#92c83e">
<path id="star_x5F_favorite" d="M16.7,12.2c-0.4,0.4-0.6,1.1-0.5,1.7l0.6,3.9C17,19,16.1,20,15.1,20c-0.3,0-0.6-0.1-0.8-0.2
	l-3.4-1.8c-0.3-0.1-0.6-0.2-0.8-0.2c-0.3,0-0.6,0.1-0.8,0.2l-3.4,1.8C5.5,19.9,5.2,20,4.9,20c-1.1,0-2-1-1.8-2.2l0.6-3.9
	c0.1-0.6-0.1-1.2-0.5-1.7L0.5,9.4c-1.1-1.1-0.5-3,1-3.2l3.8-0.6c0.6-0.1,1.1-0.5,1.4-1l1.7-3.6C8.7,0.4,9.4,0,10,0
	c0.6,0,1.3,0.4,1.6,1.1l1.7,3.6c0.3,0.6,0.8,0.9,1.4,1l3.8,0.6c1.5,0.2,2.1,2.1,1,3.2L16.7,12.2z"/>
</svg>
