<svg width="28" height="40" viewBox="0 0 28 40" fill="none" xmlns="http://www.w3.org/2000/svg">
<g clip-path="url(#clip0)">
<g filter="url(#filter0_d)">
<path d="M14 0C6.2 0 0 6.2 0 14C0 21.8 14 40 14 40C14 40 28 21.8 28 14C28 6.2 21.8 0 14 0ZM14 18.4C11.8 18.4 10 16.6 10 14.4C10 12.2 11.8 10.4 14 10.4C16.2 10.4 18 12.2 18 14.4C18 16.6 16.2 18.4 14 18.4Z" fill="#262262"/>
</g>
<circle r="5" transform="matrix(-1 0 0 1 14 14)" fill="white"/>
</g>
<defs>
<filter id="filter0_d" x="-6" y="-2" width="40" height="52" filterUnits="userSpaceOnUse" color-interpolation-filters="sRGB">
<feFlood flood-opacity="0" result="BackgroundImageFix"/>
<feColorMatrix in="SourceAlpha" type="matrix" values="0 0 0 0 0 0 0 0 0 0 0 0 0 0 0 0 0 0 127 0"/>
<feOffset dy="4"/>
<feGaussianBlur stdDeviation="3"/>
<feColorMatrix type="matrix" values="0 0 0 0 0.572549 0 0 0 0 0.784314 0 0 0 0 0.243137 0 0 0 0.25 0"/>
<feBlend mode="normal" in2="BackgroundImageFix" result="effect1_dropShadow"/>
<feBlend mode="normal" in="SourceGraphic" in2="effect1_dropShadow" result="shape"/>
</filter>
<clipPath id="clip0">
<rect width="28" height="40" fill="white"/>
</clipPath>
</defs>
</svg>
