<svg width="88" height="88" viewBox="0 0 88 88" fill="none" xmlns="http://www.w3.org/2000/svg">
<path d="M0.311523 22.6274L45.5664 22.6274L65.0002 42.0613L65.0002 87.3162L0.311523 22.6274Z" fill="#262262"/>
<path d="M42.5393 36.1466L36.5303 30.1376L35.2235 31.4443L37.4311 33.6519L31.8082 39.2749L33.3921 40.8588L39.015 35.2359L41.2325 37.4533L42.5393 36.1466ZM39.7075 47.4118C41.8854 49.5897 45.0137 49.6887 47.0827 47.6197C49.1516 45.5507 49.0527 42.4224 46.8748 40.2445C44.687 38.0567 41.5587 37.9776 39.4996 40.0366C37.4405 42.0957 37.5197 45.224 39.7075 47.4118ZM41.0737 46.0456C39.8362 44.8082 39.8065 42.9768 41.1232 41.6602C42.4398 40.3435 44.2712 40.3732 45.5086 41.6107C46.7461 42.8481 46.7758 44.6795 45.4591 45.9961C44.1425 47.3128 42.3111 47.2831 41.0737 46.0456ZM54.7825 48.3898L51.7829 45.3903L44.8533 52.3199L46.457 53.9236L48.3676 52.013L49.7634 53.4089C51.6146 55.2601 53.7331 55.458 55.2774 53.9137C56.8316 52.3595 56.6337 50.241 54.7825 48.3898ZM50.981 52.013L49.6743 50.7063L52.0799 48.3007L53.3866 49.6074C54.3667 50.5875 54.4162 51.528 53.6539 52.2902C52.9015 53.0426 51.9611 52.9931 50.981 52.013Z" fill="white"/>
</svg>
