<?xml version="1.0" encoding="utf-8"?>
<!-- Generator: Adobe Illustrator 22.0.1, SVG Export Plug-In . SVG Version: 6.00 Build 0)  -->
<svg version="1.1" id="Слой_1" xmlns="http://www.w3.org/2000/svg" xmlns:xlink="http://www.w3.org/1999/xlink" x="0px" y="0px"
	 viewBox="0 0 20 20" style="enable-background:new 0 0 20 20;" xml:space="preserve" width="15" height="15" fill="#dddce8">
<path id="star_x5F_favorite_1_" d="M19.5,9.4c1.1-1.1,0.5-3-1-3.2l-3.8-0.6c-0.6-0.1-1.1-0.5-1.4-1l-1.7-3.6C11.3,0.4,10.6,0,10,0
	C9.4,0,8.7,0.4,8.4,1.1L6.7,4.6c-0.3,0.6-0.8,0.9-1.4,1L1.6,6.2c-1.5,0.2-2.1,2.1-1,3.2l2.7,2.8c0.4,0.4,0.6,1.1,0.5,1.7l-0.6,3.9
	C3,19,3.9,20,4.9,20c0.3,0,0.6-0.1,0.8-0.2l3.4-1.8c0.3-0.1,0.6-0.2,0.8-0.2c0.3,0,0.6,0.1,0.8,0.2l3.4,1.8c0.3,0.2,0.6,0.2,0.8,0.2
	c1.1,0,2-1,1.8-2.2l-0.6-3.9c-0.1-0.6,0.1-1.2,0.5-1.7L19.5,9.4z M15,10.4c-1,1-1.5,2.5-1.2,3.9l0.4,2.7L12,15.7
	c-0.6-0.3-1.3-0.5-2-0.5s-1.4,0.2-2,0.5L5.7,17l0.4-2.7C6.4,12.9,6,11.4,5,10.4L3.1,8.5l2.6-0.4C7,7.9,8.2,7,8.9,5.7L10,3.3l1.1,2.4
	C11.8,7,13,7.9,14.3,8.1l2.6,0.4L15,10.4z"/>
</svg>
