<svg width="31" height="22" viewBox="0 0 31 22" fill="none" xmlns="http://www.w3.org/2000/svg">
<g clip-path="url(#clip0)">
<path d="M21.5159 10.34C22.7318 9.13 22.0686 7.04 20.4105 6.82L16.2101 6.16C15.5468 6.05 14.9941 5.61 14.6625 5.06L12.7834 1.1C12.4517 0.44 11.678 0 11.0147 0C10.3515 0 9.57772 0.44 9.24611 1.21L7.36695 5.06C7.03533 5.72 6.48264 6.05 5.81941 6.16L1.72947 6.82C0.0713902 7.04 -0.591843 9.13 0.624084 10.34L3.60863 13.42C4.05079 13.86 4.27186 14.63 4.16133 15.29L3.49809 19.58C3.27701 20.9 4.27186 22 5.37725 22C5.70887 22 6.04048 21.89 6.26156 21.78L10.0199 19.8C10.3515 19.69 10.6831 19.58 10.9042 19.58C11.2358 19.58 11.5674 19.69 11.7885 19.8L15.5468 21.78C15.8784 22 16.2101 22 16.4311 22C17.6471 22 18.6419 20.9 18.4208 19.58L17.7576 15.29C17.6471 14.63 17.8681 13.97 18.3103 13.42L21.5159 10.34ZM16.5417 11.44C15.4363 12.54 14.8836 14.19 15.2152 15.73L15.6574 18.7L13.2255 17.27C12.5623 16.94 11.7885 16.72 11.0147 16.72C10.241 16.72 9.46719 16.94 8.80395 17.27L6.26156 18.7L6.70372 15.73C7.03533 14.19 6.59318 12.54 5.48779 11.44L3.38755 9.35L6.26156 8.91C7.69857 8.69 9.02503 7.7 9.7988 6.27L11.0147 3.63L12.2307 6.27C13.0044 7.7 14.3309 8.69 15.7679 8.91L18.6419 9.35L16.5417 11.44Z" fill="#DDDCE8"/>
</g>
<defs>
<clipPath id="clip0">
<rect width="31" height="22" fill="white"/>
</clipPath>
</defs>
</svg>
