<svg width="20" height="20" viewBox="0 0 20 20" fill="none" xmlns="http://www.w3.org/2000/svg">
<g clip-path="url(#clip0)">
<path d="M14.8008 17.8C14.8008 17.7 14.8008 17.7 14.8008 17.8V17.8ZM14.7008 18.2C14.6008 18.3 14.6008 18.3 14.7008 18.2V18.2ZM14.1008 15.6C13.4008 15.2 12.7008 14.8 12.0008 14.5C10.6008 13.9 10.7008 15.6 9.70078 16.2C9.00078 16.6 8.10078 15.9 7.60078 15.6C6.60078 15 5.70078 14.2 5.00078 13.2C4.60078 12.7 3.80078 11.8 3.90078 11.1C4.00078 9.9 5.30078 9.9 4.90078 8.6C4.70078 7.8 4.40078 7.1 4.10078 6.5C3.70078 5.5 3.60078 5 2.60078 5C1.80078 5 1.30078 5.4 0.900781 6C-0.299219 7.6 -0.0992187 9.8 0.700781 11.5C1.80078 14 3.80078 16.3 6.00078 17.9C7.50078 18.9 9.40078 19.9 11.2008 20C12.5008 20.1 14.3008 19.4 14.8008 18C14.8008 18.1 14.7008 18.2 14.7008 18.2C14.7008 18.2 14.7008 18.1 14.8008 18C14.8008 17.9 14.9008 17.8 14.9008 17.8C14.9008 17.8 14.9008 17.9 14.8008 18C15.1008 16.8 15.2008 16.2 14.1008 15.6ZM20.0008 2C20.0008 0.9 19.1008 0 18.0008 0C17.2008 0 18.0008 0 13.0008 0C12.4008 0 12.0008 0.4 12.0008 1C12.0008 1.6 12.4008 2 13.0008 2H15.4008C15.8008 2 16.1008 2.5 15.7008 2.8L12.1008 6.4C11.7008 6.8 11.7008 7.4 12.1008 7.8C12.5008 8.2 13.1008 8.2 13.5008 7.8L17.1008 4.2C17.4008 3.9 18.0008 4.2 18.0008 4.6V7C18.0008 7.6 18.5008 8 19.0008 8C19.6008 8 20.0008 7.5 20.0008 7V2Z" fill="#3C3B55"/>
</g>
<defs>
<clipPath id="clip0">
<rect width="20" height="20" fill="white"/>
</clipPath>
</defs>
</svg>
