<svg width="6" height="19" viewBox="0 0 6 19" fill="none" xmlns="http://www.w3.org/2000/svg">
<g clip-path="url(#clip0)">
<path d="M3 5.56574C4.7 5.56574 6 4.35983 6 2.78287C6 1.20591 4.7 0 3 0C1.3 0 0 1.20591 0 2.78287C0 4.35983 1.3 5.56574 3 5.56574ZM3 1.85525C3.6 1.85525 4 2.22629 4 2.78287C4 3.33944 3.6 3.71049 3 3.71049C2.4 3.71049 2 3.33944 2 2.78287C2 2.22629 2.4 1.85525 3 1.85525ZM3 6.49336C1.3 6.49336 0 7.69927 0 9.27623C0 10.8532 1.3 12.0591 3 12.0591C4.7 12.0591 6 10.8532 6 9.27623C6 7.69927 4.7 6.49336 3 6.49336ZM3 10.2038C2.4 10.2038 2 9.8328 2 9.27623C2 8.71965 2.4 8.3486 3 8.3486C3.6 8.3486 4 8.71965 4 9.27623C4 9.8328 3.6 10.2038 3 10.2038ZM3 12.9867C1.3 12.9867 0 14.1926 0 15.7696C0 17.3465 1.3 18.5525 3 18.5525C4.7 18.5525 6 17.3465 6 15.7696C6 14.1926 4.7 12.9867 3 12.9867ZM3 16.6972C2.4 16.6972 2 16.3262 2 15.7696C2 15.213 2.4 14.842 3 14.842C3.6 14.842 4 15.213 4 15.7696C4 16.3262 3.6 16.6972 3 16.6972Z" fill="#262262"/>
</g>
<defs>
<clipPath id="clip0">
<rect width="6" height="18.5525" fill="white"/>
</clipPath>
</defs>
</svg>
