<?xml version="1.0" encoding="utf-8"?>
<!-- Generator: Adobe Illustrator 22.0.1, SVG Export Plug-In . SVG Version: 6.00 Build 0)  -->
<svg version="1.1" id="Layer_21" xmlns="http://www.w3.org/2000/svg" xmlns:xlink="http://www.w3.org/1999/xlink" x="0px" y="0px"
	 viewBox="0 0 64 36.3" style="enable-background:new 0 0 64 36.3;" xml:space="preserve" width="22" height="22">
<title></title>
<path d="M61.5,1.6H51.1c-0.9,0-1.7,0.5-2.1,1.2c0,0-4.1,7.6-5.5,10.2c-3.6,6.9-5.9,4.7-5.9,1.5V3.5c0-1.9-1.6-3.5-3.5-3.5h-7.8
	c-2.2-0.2-4.3,0.8-5.5,2.6c0,0,4-0.6,4,4.7c0,1.3,0.1,5.1,0.1,8.3c0,1.3-1,2.3-2.2,2.4c-0.7,0-1.3-0.3-1.8-0.8
	c-3.2-4.4-5.8-9.3-7.9-14.3c-0.4-0.8-1.1-1.3-2-1.3c-2.3,0-6.8,0-9.4,0C0.7,1.6,0,2.3,0,3.2c0,0.2,0,0.4,0.1,0.6
	C3,11.6,15.3,36.3,29.4,36.3h5.9c1.3,0,2.3-1,2.3-2.3v-3.6c0-1.3,1-2.3,2.3-2.3c0.6,0,1.1,0.2,1.6,0.6l7.1,6.7
	c0.6,0.6,1.5,0.9,2.4,0.9h9.3c4.5,0,4.5-3.1,2-5.5c-1.7-1.7-7.9-8.3-7.9-8.3c-1.1-1.1-1.2-2.9-0.2-4.2c2-2.6,5.3-7,6.7-8.8
	C62.8,7,66.2,1.6,61.5,1.6z" fill="#262262"/>
</svg>
