<?xml version="1.0" encoding="utf-8"?>
<!-- Generator: Adobe Illustrator 22.0.1, SVG Export Plug-In . SVG Version: 6.00 Build 0)  -->
<svg version="1.1" id="Layer_1" xmlns="http://www.w3.org/2000/svg" xmlns:xlink="http://www.w3.org/1999/xlink" x="0px" y="0px"
	 viewBox="0 0 64 40.7" style="enable-background:new 0 0 64 40.7;" xml:space="preserve" width="22" height="22">
<g>
	<path d="M20.3,17.4c0,2.3,0,4.6,0,6.9c3.9,0.1,7.8,0.1,11.6,0.1c-1.7,8.6-13.4,11.4-19.6,5.8C6,25.3,6.3,14.5,12.9,10
		c4.6-3.7,11.2-2.8,15.8,0.4c1.8-1.7,3.5-3.5,5.2-5.3C30.1,2,25.3-0.2,20.3,0C9.9-0.3,0.2,8.8,0.1,19.3c-0.7,8.6,5,17,12.9,20
		c7.9,3,18.1,1,23.1-6.1c3.3-4.5,4.1-10.3,3.7-15.7C33.3,17.4,26.8,17.4,20.3,17.4z" fill="#262262"/>
	<path d="M58.2,17.4c0-1.9,0-3.9,0-5.8c-1.9,0-3.9,0-5.8,0c0,1.9,0,3.9,0,5.8c-1.9,0-3.9,0-5.8,0c0,1.9,0,3.9,0,5.8
		c1.9,0,3.9,0,5.8,0.1c0,1.9,0,3.9,0,5.8c1.9,0,3.9,0,5.8,0c0-1.9,0-3.9,0-5.8c1.9,0,3.9,0,5.8,0c0-1.9,0-3.9,0-5.8
		C62.1,17.4,60.1,17.4,58.2,17.4z" fill="#262262"/>
</g>
</svg>
