<svg width="38" height="42" viewBox="0 0 38 42" fill="none" xmlns="http://www.w3.org/2000/svg">
<g clip-path="url(#clip0)">
<path d="M18.9967 42C16.2603 42 14.1727 40.2009 12.339 38.6091C11.4926 37.8744 10.6933 37.1868 9.92222 36.7347C9.10411 36.2543 8.06971 35.887 6.98829 35.5008C4.72202 34.6907 2.16424 33.7771 0.838332 31.4976C-0.44056 29.2936 0.0108137 26.7504 0.452783 24.3014C0.659663 23.124 0.857139 22.022 0.857139 21.0047C0.857139 19.9874 0.659663 18.8854 0.452783 17.708C0.0202173 15.2496 -0.431156 12.7159 0.847735 10.5024C2.16424 8.2135 4.73143 7.29984 6.98829 6.4898C8.07911 6.10361 9.10411 5.73626 9.93162 5.25589C10.7121 4.80377 11.502 4.11617 12.3484 3.38148C14.1821 1.79906 16.2603 0 18.9967 0C21.7332 0 23.8208 1.79906 25.6545 3.39089C26.5008 4.12559 27.3001 4.81319 28.0712 5.26531C28.8987 5.74568 29.9237 6.11303 31.0145 6.49922C33.2714 7.30926 35.8386 8.22292 37.1551 10.5024C38.434 12.7159 37.9826 15.259 37.55 17.708C37.3432 18.8854 37.1457 19.9874 37.1457 21.0047C37.1457 22.0126 37.3432 23.124 37.55 24.3014C37.9826 26.7598 38.434 29.2936 37.1551 31.5165C35.8386 33.7959 33.2714 34.719 31.0051 35.529C29.9143 35.9152 28.8893 36.2826 28.0712 36.763C27.3001 37.2151 26.5008 37.9027 25.6545 38.6374C23.8208 40.2009 21.7426 42 18.9967 42ZM18.9967 3.10832C17.4075 3.10832 15.9311 4.38933 14.3701 5.73626C13.458 6.52747 12.5082 7.34694 11.4738 7.94035C10.4018 8.56201 9.19814 8.99529 8.02269 9.40973C6.09495 10.0973 4.27065 10.7473 3.51836 12.0471C2.80369 13.281 3.14222 15.1648 3.49015 17.1523C3.71584 18.405 3.94152 19.7049 3.94152 20.9953C3.94152 22.2857 3.71584 23.5856 3.49015 24.8383C3.13281 26.8352 2.80369 28.7096 3.51836 29.9435C4.27065 31.2433 6.09495 31.8932 8.02269 32.5808C9.19814 32.9953 10.4018 33.4286 11.4738 34.0502C12.4988 34.6436 13.4486 35.4631 14.3701 36.2543C15.9311 37.6107 17.4169 38.8823 18.9967 38.8823C20.5859 38.8823 22.0623 37.6013 23.6233 36.2543C24.5354 35.4631 25.4852 34.6436 26.5196 34.0502C27.5916 33.4286 28.7953 32.9953 29.9707 32.5808C31.8985 31.8932 33.7228 31.2433 34.4751 29.9435C35.1897 28.7096 34.8512 26.8257 34.5033 24.8289C34.2776 23.5761 34.0519 22.2763 34.0519 20.9953C34.0519 19.7049 34.2776 18.405 34.5033 17.1523C34.8606 15.1554 35.1897 13.281 34.4751 12.0471C33.7228 10.7473 31.9079 10.0973 29.9707 9.40973C28.7953 8.99529 27.5822 8.56201 26.5196 7.94035C25.4946 7.34694 24.5448 6.52747 23.6233 5.73626C22.0623 4.38933 20.5859 3.10832 18.9967 3.10832Z" fill="white"/>
<path d="M13.3915 20.7033C10.467 20.7033 8.08789 18.3202 8.08789 15.3909C8.08789 12.4615 10.467 10.0785 13.3915 10.0785C16.3161 10.0785 18.6952 12.4615 18.6952 15.3909C18.6952 18.3202 16.3161 20.7033 13.3915 20.7033ZM13.3915 13.1868C12.1785 13.1868 11.1911 14.1758 11.1911 15.3909C11.1911 16.606 12.1785 17.595 13.3915 17.595C14.6046 17.595 15.592 16.606 15.592 15.3909C15.592 14.1758 14.6046 13.1868 13.3915 13.1868Z" fill="white"/>
<path d="M24.6103 31.931C21.6858 31.931 19.3066 29.5479 19.3066 26.6186C19.3066 23.6892 21.6858 21.3062 24.6103 21.3062C27.5348 21.3062 29.9139 23.6892 29.9139 26.6186C29.9139 29.5479 27.5348 31.931 24.6103 31.931ZM24.6103 24.4145C23.3972 24.4145 22.4098 25.4035 22.4098 26.6186C22.4098 27.8336 23.3972 28.8226 24.6103 28.8226C25.8234 28.8226 26.8107 27.8336 26.8107 26.6186C26.8107 25.4035 25.8234 24.4145 24.6103 24.4145Z" fill="white"/>
<path d="M13.8987 30.113C13.5978 30.113 13.2969 30.0282 13.0336 29.8493C12.3189 29.3689 12.1403 28.3987 12.6199 27.6923L22.8134 12.5745C23.293 11.8587 24.2615 11.6797 24.9668 12.1601C25.6815 12.6405 25.8601 13.6106 25.3806 14.3171L15.187 29.4254C14.8861 29.8775 14.3971 30.113 13.8987 30.113Z" fill="white"/>
</g>
<defs>
<clipPath id="clip0">
<rect width="38" height="42" fill="white"/>
</clipPath>
</defs>
</svg>
