<svg width="8" height="11" viewBox="0 0 8 11" fill="none" xmlns="http://www.w3.org/2000/svg">
<g clip-path="url(#clip0)">
<path d="M7.90002 4.70013C7.76668 4.83346 7.56668 4.80013 7.43335 4.6668L4.33335 1.20013V10.6335C4.33335 10.8335 4.20002 10.9668 4.00002 10.9668C3.80002 10.9668 3.66668 10.8335 3.66668 10.6335V1.20013L0.600017 4.70013C0.466683 4.83346 0.266683 4.8668 0.13335 4.73346C1.66446e-05 4.60013 -0.0333167 4.40013 0.100017 4.2668L3.76668 0.10013L3.80002 0.0667953C3.80002 0.0667953 3.80002 0.0667963 3.83335 0.0334625C3.83335 0.0334625 3.86668 0.0334635 3.86668 0.0001297C3.86668 0.0001297 3.86668 0.0001297 3.90002 0.0001297H3.93335C3.96668 0.0001297 3.96668 0.0001297 4.00002 0.0001297C4.03335 0.0001297 4.03335 0.0001297 4.06668 0.0001297H4.10002C4.10002 0.0001297 4.10002 0.0001297 4.13335 0.0001297C4.13335 0.0001297 4.16668 0.000128746 4.16668 0.0334625C4.16668 0.0334625 4.16668 0.0334616 4.20002 0.0667953L4.23335 0.10013L7.90002 4.2668C8.03335 4.40013 8.03335 4.60013 7.90002 4.70013Z" fill="#3C3B55"/>
</g>
<defs>
<clipPath id="clip0">
<rect width="8" height="11" fill="white"/>
</clipPath>
</defs>
</svg>
