<svg width="205" height="58" viewBox="0 0 205 58" fill="none" xmlns="http://www.w3.org/2000/svg">
<g clip-path="url(#clip0)">
<path d="M186.8 30.8C190.776 30.8 194 27.5764 194 23.6C194 19.6235 190.776 16.4 186.8 16.4C182.824 16.4 179.6 19.6235 179.6 23.6C179.6 27.5764 182.824 30.8 186.8 30.8Z" fill="#92C83E"/>
<path d="M14 39.7L0 7.39999H8.6C8.6 7.39999 17.6 29.9 18.7 33.8H18.8C20 30 29.5 7.39999 29.5 7.39999H37.9L23 39.7H14Z" fill="#0F145B"/>
<path d="M92.7 39.7L83.7 28.2L75.3 39.7H66.3L79.1 23.4L66.8 7.39999H75.8L84 19.1L92.3 7.39999H101.3L88.6 23.2L101.7 39.7H92.7Z" fill="#0F145B"/>
<path d="M116.3 12.3H104V7.39999H136.6V12.3H124.2V39.7H116.3V12.3Z" fill="#0F145B"/>
<path d="M50.8 7.39999H43.9L45.5 12.1C46.1 14 51.1 26.1 51.1 26.1H40.5L38.9 30.6H52.5L56.4 39.7H64.9L50.8 7.39999Z" fill="#0F145B"/>
<path d="M149.1 7.39999H142.2L143.8 12.1C144.4 14 149.4 26.1 149.4 26.1H138.7L137.1 30.6H150.7L154.6 39.7H163.1L149.1 7.39999Z" fill="#0F145B"/>
<path d="M177.8 0L186.7 18.1L195.7 0.1L177.8 0Z" fill="#92C83E"/>
<path d="M195 7.60001L191.9 13.9C195.4 15.7 197.7 19.4 197.7 23.6C197.7 29.6 192.8 34.6 186.7 34.6C180.7 34.6 175.7 29.7 175.7 23.6C175.7 19.4 178.1 15.8 181.5 13.9L178.4 7.60001C172.6 10.6 168.7 16.6 168.7 23.6C168.7 33.5 176.7 41.6 186.7 41.6C196.6 41.6 204.7 33.6 204.7 23.6C204.7 16.6 200.8 10.6 195 7.60001Z" fill="#0F145B"/>
<path d="M59.5 53.8C59.5 53.1 59.6 52.4 59.9 51.8C60.2 51.2 60.6 50.8 61.1 50.5C61.6 50.2 62.2 50 62.8 50C63.8 50 64.6 50.3 65.2 51C65.8 51.7 66.1 52.6 66.1 53.8V54C66.1 54.7 66 55.4 65.7 55.9C65.4 56.5 65 56.9 64.5 57.2C64 57.5 63.4 57.7 62.7 57.7C61.7 57.7 60.9 57.4 60.3 56.7C59.9 56 59.5 55.1 59.5 53.8ZM60.8 54C60.8 54.8 61 55.5 61.4 56C61.8 56.5 62.3 56.7 62.9 56.7C63.5 56.7 64.1 56.4 64.4 55.9C64.7 55.4 65 54.7 65 53.8C65 53 64.8 52.3 64.4 51.8C64 51.3 63.5 51 62.9 51C62.3 51 61.8 51.2 61.4 51.7C61 52.3 60.8 53 60.8 54Z" fill="#8DC63F"/>
<path d="M78.1 50.2V51.1C78.7 50.4 79.4 50 80.3 50C81.9 50 82.7 50.9 82.7 52.6V57.5H81.4V52.6C81.4 52.1 81.3 51.7 81 51.4C80.8 51.1 80.4 51 79.9 51C79.5 51 79.1 51.1 78.8 51.3C78.5 51.5 78.2 51.8 78.1 52.2V57.5H76.8V50.1H78.1V50.2Z" fill="#8DC63F"/>
<path d="M95.1 57.6H93.8V47.1H95.1V57.6Z" fill="#8DC63F"/>
<path d="M106.2 48.2C106.2 48 106.3 47.8 106.4 47.7C106.5 47.6 106.7 47.5 107 47.5C107.3 47.5 107.4 47.6 107.6 47.7C107.8 47.8 107.8 48 107.8 48.2C107.8 48.4 107.7 48.6 107.6 48.7C107.5 48.8 107.3 48.9 107 48.9C106.7 48.9 106.6 48.8 106.4 48.7C106.3 48.6 106.2 48.4 106.2 48.2ZM107.6 57.6H106.3V50.2H107.6V57.6Z" fill="#8DC63F"/>
<path d="M119.9 50.2V51.1C120.5 50.4 121.2 50 122.1 50C123.7 50 124.5 50.9 124.5 52.6V57.5H123.2V52.6C123.2 52.1 123.1 51.7 122.8 51.4C122.6 51.1 122.2 51 121.7 51C121.3 51 120.9 51.1 120.6 51.3C120.3 51.5 120 51.8 119.9 52.2V57.5H118.6V50.1H119.9V50.2Z" fill="#8DC63F"/>
<path d="M138.5 57.7C137.5 57.7 136.7 57.4 136.1 56.7C135.5 56 135.2 55.2 135.2 54.1V53.9C135.2 53.2 135.3 52.5 135.6 51.9C135.9 51.3 136.3 50.9 136.8 50.5C137.3 50.2 137.8 50 138.4 50C139.4 50 140.1 50.3 140.6 51C141.1 51.6 141.4 52.5 141.4 53.7V54.2H136.4C136.4 54.9 136.6 55.5 137 56C137.4 56.4 137.9 56.7 138.6 56.7C139 56.7 139.4 56.6 139.7 56.4C140 56.2 140.3 56 140.5 55.7L141.3 56.3C140.7 57.2 139.8 57.7 138.5 57.7ZM138.4 51.1C137.9 51.1 137.5 51.3 137.1 51.7C136.8 52.1 136.5 52.6 136.5 53.3H140.2V53.2C140.2 52.6 140 52.1 139.7 51.7C139.3 51.3 138.9 51.1 138.4 51.1Z" fill="#8DC63F"/>
</g>
<defs>
<clipPath id="clip0">
<rect width="204.7" height="57.7" fill="white"/>
</clipPath>
</defs>
</svg>
