<svg width="35" height="40" viewBox="0 0 35 40" fill="none" xmlns="http://www.w3.org/2000/svg">
<g clip-path="url(#clip0)">
<path d="M8.6499 0L17.2219 17.3998L25.8328 0.0782014L8.6499 0Z" fill="#8DC63F"/>
<path d="M25.1705 7.31152L22.1703 13.3721C25.5211 15.1317 27.781 18.6507 27.781 22.7172C27.781 28.5432 23.0664 33.2744 17.2609 33.2744C11.4553 33.2744 6.7407 28.5432 6.7407 22.7172C6.7407 18.6898 9.00058 15.1708 12.3515 13.3721L9.35126 7.31152C3.77947 10.205 0 15.9919 0 22.7172C0 32.2578 7.71479 40.0388 17.2609 40.0388C26.8069 40.0388 34.5217 32.2969 34.5217 22.7172C34.4828 15.9919 30.7033 10.205 25.1705 7.31152Z" fill="white"/>
<path d="M20.5339 16.6182L19.5598 18.5732L17.222 23.3044L14.8842 18.5732L13.9101 16.6182C11.7671 17.7912 10.3254 20.059 10.3254 22.7179C10.3254 26.5497 13.4036 29.6387 17.222 29.6387C21.0404 29.6387 24.1575 26.5497 24.1575 22.7179C24.1575 20.059 22.7159 17.7912 20.5339 16.6182Z" fill="#8DC63F"/>
</g>
<defs>
<clipPath id="clip0">
<rect width="34.4828" height="40" fill="white"/>
</clipPath>
</defs>
</svg>
