<svg width="37" height="42" viewBox="0 0 37 42" fill="none" xmlns="http://www.w3.org/2000/svg">
<path d="M18.4519 31.0961C22.5056 31.0961 25.7919 27.8416 25.7919 23.8269C25.7919 19.8122 22.5056 16.5577 18.4519 16.5577C14.3981 16.5577 11.1118 19.8122 11.1118 23.8269C11.1118 27.8416 14.3981 31.0961 18.4519 31.0961Z" fill="#92C83E"/>
<path d="M9.27637 0L18.3495 18.274L27.5245 0.100962L9.27637 0Z" fill="#92C83E"/>
<path d="M26.8115 7.6731L23.6512 14.0337C27.2193 15.851 29.564 19.5866 29.564 23.8269C29.564 29.8846 24.5687 34.9327 18.3501 34.9327C12.2334 34.9327 7.13615 29.9856 7.13615 23.8269C7.13615 19.5866 9.58283 15.9519 13.049 14.0337L9.88866 7.6731C3.97585 10.7019 0 16.7596 0 23.8269C0 33.8221 8.1556 42 18.3501 42C28.4426 42 36.7002 33.9231 36.7002 23.8269C36.7002 16.7596 32.7243 10.7019 26.8115 7.6731Z" fill="#0F145B"/>
</svg>
