<svg width="25" height="16" viewBox="0 0 25 16" fill="none" xmlns="http://www.w3.org/2000/svg">
<g clip-path="url(#clip0)">
<path fill-rule="evenodd" clip-rule="evenodd" d="M13.3334 15.1579C14.1668 15.1579 14.1668 13.9444 14.1668 13.4737C14.1668 12.6316 15.0001 11.7895 15.8334 11.7895C16.6668 11.7895 18.0959 13.2337 19.1668 14.3158C20.0001 15.1579 20.0001 15.1579 20.8334 15.1579C21.6668 15.1579 23.3334 15.1579 23.3334 15.1579C23.3334 15.1579 25.0001 15.0939 25.0001 13.4737C25.0001 12.9474 24.4293 12.0547 22.5001 10.1053C20.8334 8.42105 19.9784 9.29095 22.5001 5.89474C24.0359 3.82653 25.1534 1.95284 24.9618 1.41221C24.7784 0.896 20.5068 0.0741053 20.0001 0.842105C18.3334 3.36842 18.0276 3.98737 17.5001 5.05263C16.6668 6.73684 16.5843 7.57895 15.8334 7.57895C15.0759 7.57895 15.0001 5.94442 15.0001 5.05263C15.0001 2.26863 15.3993 0.299789 14.1668 0C14.1668 0 12.5001 0 11.6668 0C10.3251 0 9.16678 0.842105 9.16678 0.842105C9.16678 0.842105 8.13262 1.65726 8.33345 1.68421C8.58178 1.71789 10.0001 1.33558 10.0001 2.52632C10.0001 3.36842 10.0001 4.21053 10.0001 4.21053C10.0001 4.21053 10.0076 7.57895 9.16678 7.57895C8.33345 7.57895 6.66678 4.21053 5.00011 1.68421C4.34595 0.693053 4.16678 0.842105 3.33345 0.842105C2.44012 0.842105 1.66762 0.877473 0.833448 0.877473C0.000115134 0.877473 -0.106552 1.41389 0.000115164 1.68421C1.66678 5.89474 2.86428 8.53895 6.03095 11.8703C8.93511 14.9263 10.8751 15.0888 12.5001 15.1579C12.9168 15.1756 12.5001 15.1579 13.3334 15.1579Z" fill="#43638A"/>
</g>
<defs>
<clipPath id="clip0">
<rect width="25" height="16" fill="white"/>
</clipPath>
</defs>
</svg>
